<svg xmlns="http://www.w3.org/2000/svg" width="1000" height="1000">
    <path d="M313.795 999.44c-13.24 0-25.949-5.277-35.328-14.641L15.158 721.144C5.8 711.774.552 699.065.552 685.787V312.938a50.046 50.046 0 0 1 14.606-35.355L278.467 13.928C287.847 4.563 300.556.552 313.795.552h372.41c13.245 0 25.953 4.011 35.306 13.376l263.33 263.655a50.063 50.063 0 0 1 14.6 35.355v372.85c0 13.277-5.246 25.985-14.6 35.356l-263.33 263.655a49.923 49.923 0 0 1-35.306 14.642z" fill="#fff"/>
    <path d="M956.981 311.09L689.29 43.067H310.71L43.02 311.09v379.038L310.71 958.152H689.29L956.98 690.128z" fill="#c1121c"/>
    <path d="M755.236 381.287v106.36h29.492s29.78-.006 29.78-29.607v-47.289s-.142-29.464-29.78-29.464zm-47.224 283.539V333.949h76.716c77.117 0 76.71 76.802 76.71 76.802v47.29s.407 76.803-76.71 76.803h-29.492v129.982zm-159.311-76.802c0 17.948 14.545 32.504 32.466 32.504 17.928 0 32.446-14.556 32.446-32.504V410.75c0-17.942-14.518-32.483-32.446-32.483-17.921 0-32.466 14.54-32.466 32.483zm-47.252 0V410.75c0-44.031 35.692-79.766 79.718-79.766 43.983 0 79.648 35.735 79.648 79.766v177.273c0 44.037-35.665 79.739-79.648 79.739-44.026 0-79.718-35.702-79.718-79.74zm-126.86 76.802v-283.54H318.54V333.95h159.313v47.338h-56.07v283.539zM138.56 570.313h47.202v17.71c0 17.949 14.546 32.505 32.44 32.505h2.96c17.927 0 32.445-14.556 32.445-32.504v-35.448c0-13.245-8.01-25.152-20.263-30.121l-42.076-17.066c-30.082-12.22-49.749-41.458-49.749-73.941V410.75c0-44.031 35.665-79.766 79.642-79.766 44.011 0 79.67 35.735 79.67 79.766v17.738h-47.224V410.75c0-17.942-14.518-32.483-32.446-32.483-17.927 0-32.44 14.54-32.44 32.483v20.697c0 13.224 8.005 25.13 20.258 30.094l42.102 17.092c30.083 12.2 49.75 41.436 49.75 73.942v35.448c0 44.037-35.659 79.739-79.67 79.739h-2.959c-43.977 0-79.642-35.702-79.642-79.74" fill="#fff"/>
    <path d="M313.795 0c-13.349 0-26.22 4.048-35.718 13.538L14.763 277.193A50.61 50.61 0 0 0 0 312.938v372.85c0 13.423 5.305 26.273 14.763 35.745L278.077 985.19c9.482 9.473 22.332 14.811 35.718 14.811h372.41a50.487 50.487 0 0 0 35.703-14.811l263.324-263.656c9.463-9.472 14.768-22.322 14.768-35.746V312.938a50.593 50.593 0 0 0-14.768-35.745L721.908 13.538C712.43 4.048 699.558 0 686.205 0zm0 .552h372.41c13.245 0 25.953 4.005 35.312 13.376l263.325 263.655a50.063 50.063 0 0 1 14.599 35.355v372.85c0 13.277-5.246 25.985-14.6 35.356L721.518 984.799a49.945 49.945 0 0 1-35.312 14.642h-372.41c-13.24 0-25.949-5.278-35.328-14.642L15.158 721.144C5.8 711.774.552 699.065.552 685.787V312.938a50.046 50.046 0 0 1 14.606-35.355L278.467 13.928c9.38-9.37 22.089-13.376 35.328-13.376z"/>
</svg>
