<svg xmlns="http://www.w3.org/2000/svg" width="1000" height="1000">
  <path d="M.56 313.796c0-13.24 5.277-25.95 14.641-35.328l263.655-263.31A50.004 50.004 0 0 1 314.213.553h372.85a50.046 50.046 0 0 1 35.354 14.606l263.656 263.31c9.365 9.38 13.376 22.088 13.376 35.327v372.41c0 13.245-4.011 25.953-13.376 35.306l-263.655 263.33a50.063 50.063 0 0 1-35.355 14.6h-372.85a50.016 50.016 0 0 1-35.357-14.6L15.202 721.512A49.923 49.923 0 0 1 .56 686.207z" fill="#fff"/>
  <path d="M688.91 956.981l268.023-267.69V310.71L688.91 43.02H309.872L41.848 310.71v378.58l268.024 267.69z" fill="#c1121c"/>
  <path d="M618.713 755.236h-106.36v29.492s.006 29.78 29.607 29.78h47.29s29.463-.142 29.463-29.78zm-283.539-47.224h330.877v76.716c0 77.117-76.802 76.71-76.802 76.71h-47.29s-76.803.407-76.803-76.71v-29.491H335.174zm76.802-159.31c-17.948 0-32.504 14.545-32.504 32.466 0 17.928 14.556 32.446 32.504 32.446H589.25c17.942 0 32.483-14.518 32.483-32.446 0-17.921-14.54-32.466-32.483-32.466zm0-47.252H589.25c44.031 0 79.766 35.692 79.766 79.718 0 43.983-35.735 79.648-79.766 79.648H411.977c-44.037 0-79.739-35.665-79.739-79.648 0-44.026 35.702-79.718 79.74-79.718zm-76.802-126.86h283.54v-56.05h47.336v159.313h-47.338v-56.07H335.174zm94.513-236.03v47.202h-17.71c-17.949 0-32.505 14.546-32.505 32.44v2.96c0 17.927 14.556 32.445 32.504 32.445h35.448c13.245 0 25.152-8.01 30.121-20.263l17.066-42.076c12.22-30.082 41.458-49.749 73.941-49.749h20.698c44.031 0 79.766 35.665 79.766 79.642 0 44.011-35.735 79.67-79.766 79.67h-17.738v-47.224h17.739c17.942 0 32.483-14.518 32.483-32.446 0-17.927-14.54-32.44-32.483-32.44h-20.697c-13.224 0-25.13 8.005-30.094 20.258l-17.092 42.102c-12.2 30.084-41.436 49.75-73.942 49.75h-35.448c-44.037 0-79.74-35.659-79.74-79.67v-2.959c0-43.977 35.703-79.642 79.74-79.642" fill="#fff"/>
  <path d="M1000 313.795c0-13.349-4.048-26.22-13.538-35.718L722.807 14.763A50.61 50.61 0 0 0 687.062 0h-372.85c-13.423 0-26.273 5.305-35.745 14.763L14.81 278.077C5.337 287.56 0 300.41 0 313.796v372.41a50.487 50.487 0 0 0 14.81 35.703l263.656 263.324c9.472 9.464 22.322 14.769 35.746 14.769h372.85a50.593 50.593 0 0 0 35.745-14.769L986.462 721.91c9.49-9.479 13.538-22.35 13.538-35.703zm-.552 0v372.41c0 13.245-4.005 25.953-13.376 35.312L722.417 984.842a50.063 50.063 0 0 1-35.355 14.6h-372.85a50.016 50.016 0 0 1-35.356-14.6L15.201 721.517A49.945 49.945 0 0 1 .56 686.206v-372.41c0-13.24 5.278-25.949 14.642-35.328l263.655-263.31A50.004 50.004 0 0 1 314.213.552h372.85a50.046 50.046 0 0 1 35.354 14.606l263.655 263.31c9.37 9.38 13.376 22.088 13.376 35.327z"/>
</svg>
