<svg xmlns="http://www.w3.org/2000/svg" viewBox="0 0 141.7 141.7">
  <path d="M70.85 141.75c19.3 0 36.8-7.7 49.6-20.3 13.2-12.8 21.3-30.7 21.3-50.5s-8.1-37.7-21.2-50.6C107.75 7.75 90.25.05 70.85.05c-19.8 0-37.6 8.1-50.5 21.2-.1 0-.1.1-.2.1-12.5 12.8-20.2 30.3-20.2 49.6s7.7 36.8 20.2 49.6c.1.1.1.1.2.1 12.9 13 30.8 21.1 50.5 21.1zm-56.8-70.8c0-15.5 6.2-29.6 16.4-39.9l15.9 15.3h49.1l15.3-15.9c10.5 10.3 17 24.6 17 40.5 0 15.9-6.5 30.2-17 40.5l-15.3-16h-49.2l-15.9 15.3c-10.1-10.3-16.3-24.3-16.3-39.8z"/>
  <path d="M46.3 46.3v49.1L70.8 72l24.6 23.4V46.3L70.8 71.8z"/>
</svg>
