<svg xmlns="http://www.w3.org/2000/svg" viewBox="0 0 141.7 141.7"><path d="M141.7 70.9c0-19.3-7.7-36.8-20.3-49.6C108.6 8.1 90.7 0 70.9 0S33.2 8.1 20.3 21.2C7.7 34 0 51.5 0 70.9c0 19.8 8.1 37.6 21.2 50.5 0 .1.1.1.1.2 12.8 12.5 30.3 20.2 49.6 20.2s36.8-7.7 49.6-20.2c.1-.1.1-.1.1-.2 13-12.9 21.1-30.8 21.1-50.5zm-70.8 56.8c-15.5 0-29.6-6.2-39.9-16.4l15.3-15.9V46.3L30.4 31C40.7 20.5 55 14 70.9 14s30.2 6.5 40.5 17l-16 15.3v49.2l15.3 15.9c-10.3 10.1-24.3 16.3-39.8 16.3z"/><path d="M46.3 95.4h49.1L72 70.9l23.4-24.6H46.3l25.5 24.6z"/></svg>
