<svg xmlns="http://www.w3.org/2000/svg" height="1000" width="1000">
    <path d="M60.73.828C.699.797.828 60.738.828 60.738v878.53s-.13 59.952 59.902 59.894h878.54c60.42.064 59.892-59.894 59.892-59.894V60.738S999.659.633 939.27.828z" fill="#fff"/>
    <path d="M60.73 20.799c-22.049 0-39.931 17.88-39.931 39.931v878.538c0 22.067 17.882 39.933 39.93 39.933h878.54c22.05 0 39.932-17.866 39.932-39.933V60.73c0-22.05-17.882-39.931-39.931-39.931z" fill="#154889"/>
    <path d="M60.73 0C30.435-.016 15.096 15.217 7.523 30.402-.047 45.587 0 60.747 0 60.747v878.521s-.042 15.16 7.523 30.337c7.573 15.185 22.912 30.418 53.207 30.395h878.54c30.482.031 45.83-15.21 53.353-30.395 7.514-15.177 7.377-30.329 7.377-30.337V60.738c0-.008.129-15.201-7.394-30.393C985.083 15.144 969.736-.097 939.27 0zm0 .828h878.54c60.389-.195 59.892 59.91 59.892 59.91v878.53s.528 59.958-59.892 59.894H60.73C.699 999.22.828 939.268.828 939.268V60.738S.698.797 60.73.828z"/>
    <path d="M522.694 251.33H362.173v221.691h164.236c38.103 0 66.474-11.657 85.274-34.919 18.727-23.259 28.126-48.541 28.126-75.923 0-41.466-14.738-71.982-44.14-91.528-18.904-12.87-43.206-19.32-72.975-19.32zM360.2 849.42h-106.26l.99-698.42 262.38-.414c26.681 0 52.436 2.835 77.14 8.524 24.707 5.694 50.406 19.085 77.087 40.085 20.765 16.242 38.404 38.519 52.84 66.93 14.447 28.42 21.685 61.372 21.685 98.9 0 49.59-18.207 96.802-54.63 141.584-36.428 44.773-89.669 67.165-159.685 67.165H362.173z" fill="#fff"/>
</svg>
