<svg xmlns="http://www.w3.org/2000/svg" height="1000" width="1000">
    <path d="M999.172 60.73C999.202.699 939.262.828 939.262.828H60.732S.78.698.838 60.73v878.54c-.064 60.42 59.894 59.892 59.894 59.892h878.53s60.105.497 59.91-59.892z" fill="#fff"/>
    <path d="M979.2 60.73c0-22.05-17.88-39.931-39.93-39.931H60.732c-22.067 0-39.933 17.882-39.933 39.93v878.54c0 22.05 17.866 39.932 39.933 39.932H939.27c22.05 0 39.93-17.882 39.93-39.931z" fill="#154889"/>
    <path d="M1000 60.73c.016-30.295-15.217-45.634-30.402-53.207C954.413-.047 939.253 0 939.253 0H60.732s-15.16-.042-30.337 7.523C15.21 15.096-.023 30.435 0 60.73v878.54c-.031 30.482 15.21 45.83 30.395 53.353 15.177 7.514 30.329 7.377 30.337 7.377h878.53c.008 0 15.2.129 30.393-7.394 15.2-7.523 30.442-22.87 30.345-53.336zm-.828 0v878.54c.195 60.389-59.91 59.892-59.91 59.892H60.732S.774 999.69.838 939.27V60.73C.78.699 60.732.828 60.732.828h878.53s59.94-.13 59.91 59.902z"/>
    <path d="M748.67 522.694V362.173H526.979v164.236c0 38.103 11.657 66.474 34.919 85.274 23.259 18.727 48.54 28.126 75.923 28.126 41.466 0 71.982-14.738 91.528-44.14 12.87-18.904 19.32-43.206 19.32-72.975zM150.58 360.2V253.94l698.42.99.414 262.38c0 26.68-2.835 52.436-8.524 77.14-5.694 24.707-19.085 50.406-40.085 77.087-16.242 20.765-38.52 38.404-66.93 52.84-28.42 14.447-61.372 21.685-98.9 21.685-49.59 0-96.802-18.207-141.584-54.63-44.773-36.428-67.165-89.67-67.165-159.685V362.173z" fill="#fff"/>
</svg>
