<svg xmlns="http://www.w3.org/2000/svg" width="1000" height="1000">
  <path d="M938.305 500.005c0-11.084-4.23-22.173-12.687-30.63a43.3 43.3 0 0 0-9.077-6.944l-38.595-22.496v-.103L128.324 7.354c-.143-.08-.288-.143-.433-.224a43.383 43.383 0 0 0-11.67-5.056c-23.102-6.19-46.855 7.523-53.044 30.63A43.14 43.14 0 0 0 61.7 44.12v911.97c0 23.926 19.39 43.314 43.315 43.314 7.827 0 15.17-2.086 21.51-5.723a1.088 1.088 0 0 1 .144-.074l779.68-449.1c9.835-5.7 13.73-8.34 19.269-13.88 8.457-8.454 12.687-19.538 12.687-30.622z" fill="#fff"/>
  <path d="M927.45 500.005c.076-10.513-5.296-22.057-15.353-27.712L121.379 15.925c-5.383-2.634-10.064-3.74-15.418-3.776a32.465 32.465 0 0 0-24.848 11.58c-5.008 6.467-7.614 12.594-7.614 20.836v911.733c-.051 5.563 1.286 11.136 4.623 16.197a31.8 31.8 0 0 0 27.188 15.36c5.746-.271 11.804-1.688 16.069-4.248l790.85-456.103c.07-.04.14-.087.207-.132l.214-.14c2.588-1.618 4.877-3.647 6.836-5.96a32.45 32.45 0 0 0 7.844-18.921 29.149 29.149 0 0 0 .12-2.346zM73.5 44.565v-2.247 2.293zm697.236 454.968L167.934 847.318v-696.06z" fill="#c1121c"/>
  <path d="M938.892 500.005c0-11.24-4.288-22.472-12.86-31.043a43.923 43.923 0 0 0-9.197-7.043l-38.3-22.323v-.105L128.619 6.848c-.174-.1-.323-.17-.444-.238a43.96 43.96 0 0 0-11.798-5.105c-23.418-6.271-47.495 7.63-53.771 31.043a44.093 44.093 0 0 0-1.498 11.573v911.97c0 24.242 19.666 43.909 43.908 43.909a43.713 43.713 0 0 0 21.798-5.805c.028-.017.076-.04.145-.075l779.686-449.094c9.839-5.712 13.815-8.403 19.388-13.972 8.57-8.57 12.86-19.81 12.86-31.043zm-.587 0c0 11.084-4.23 22.168-12.687 30.623-5.54 5.54-9.434 8.179-19.268 13.879L126.67 993.602c-.052.028-.098.052-.143.08a43.098 43.098 0 0 1-21.51 5.723c-23.926 0-43.316-19.388-43.316-43.314V44.12a43.14 43.14 0 0 1 1.476-11.418c6.19-23.106 29.942-36.818 53.043-30.63a43.198 43.198 0 0 1 11.67 5.057c.146.08.29.144.434.224l749.622 432.478v.103l38.595 22.496a43.3 43.3 0 0 1 9.077 6.945c8.457 8.456 12.687 19.54 12.687 30.63z"/>
  <path d="M289.905 500l-80.208-80.21h160.44v-83.193h47.528v83.194h92.115L589.99 500l-80.208 80.238h-92.116v83.188h-47.528v-83.188h-160.44"/>
</svg>
