<svg xmlns="http://www.w3.org/2000/svg" width="1000" height="1000">
    <path d="M500.005 61.695c-11.084 0-22.173 4.23-30.629 12.687a43.3 43.3 0 0 0-6.945 9.077l-22.496 38.595h-.103L7.354 871.676c-.08.143-.143.288-.224.433a43.383 43.383 0 0 0-5.056 11.67c-6.19 23.102 7.523 46.855 30.63 53.044A43.14 43.14 0 0 0 44.12 938.3h911.97c23.926 0 43.314-19.39 43.314-43.315 0-7.827-2.086-15.17-5.723-21.51a1.088 1.088 0 0 1-.074-.144L544.507 93.65c-5.7-9.834-8.34-13.73-13.879-19.268-8.455-8.457-19.539-12.687-30.623-12.687z" fill="#fff"/>
    <path d="M500.005 72.549c-10.513-.075-22.057 5.297-27.712 15.354L15.925 878.621c-2.634 5.383-3.74 10.064-3.776 15.418 0 9.585 4.242 18.68 11.58 24.848 6.467 5.008 12.594 7.614 20.836 7.614h911.733c5.563.051 11.136-1.286 16.197-4.623a31.8 31.8 0 0 0 15.36-27.188c-.271-5.746-1.688-11.804-4.248-16.069L527.504 87.771c-.04-.07-.087-.14-.132-.207l-.14-.214c-1.618-2.588-3.647-4.877-5.959-6.836a32.45 32.45 0 0 0-18.922-7.844 29.149 29.149 0 0 0-2.346-.121zM44.565 926.5h-2.247 2.293zm454.968-697.236l347.785 602.802h-696.06z" fill="#c1121c"/>
    <path d="M500.005 61.108c-11.239 0-22.472 4.288-31.043 12.859a43.923 43.923 0 0 0-7.043 9.198l-22.323 38.3h-.105L6.848 871.381c-.1.174-.169.323-.238.444a43.96 43.96 0 0 0-5.105 11.798c-6.271 23.418 7.63 47.495 31.043 53.771a44.093 44.093 0 0 0 11.573 1.498h911.97c24.242 0 43.909-19.666 43.909-43.908 0-7.931-2.122-15.371-5.805-21.798-.017-.028-.04-.076-.075-.145L545.026 93.355c-5.712-9.839-8.403-13.815-13.972-19.388-8.57-8.571-19.81-12.86-31.043-12.86zm0 .587c11.084 0 22.168 4.23 30.623 12.687 5.54 5.539 8.179 9.434 13.879 19.268l449.095 779.68c.028.052.052.098.08.143a43.098 43.098 0 0 1 5.723 21.51c0 23.926-19.388 43.316-43.314 43.316H44.121a43.14 43.14 0 0 1-11.418-1.476c-23.106-6.19-36.818-29.942-30.629-53.043a43.198 43.198 0 0 1 5.056-11.671c.08-.145.144-.29.224-.433l432.478-749.622h.103l22.496-38.595a43.3 43.3 0 0 1 6.945-9.077c8.456-8.457 19.54-12.687 30.63-12.687z"/>
    <path d="M500 710.095l-80.209 80.208v-160.44h-83.194v-47.528h83.194V490.22L500 410.01l80.238 80.208v92.116h83.188v47.528h-83.188v160.44"/>
</svg>
