<svg xmlns="http://www.w3.org/2000/svg" width="1000" height="1000">
    <path d="M499.994 938.305c11.09 0 22.174-4.23 30.628-12.686a43.3 43.3 0 0 0 6.946-9.078l22.495-38.594h.105l432.477-749.622c.081-.144.144-.289.226-.432a43.343 43.343 0 0 0 5.053-11.673c6.192-23.1-7.52-46.852-30.629-53.043a43.125 43.125 0 0 0-11.417-1.476H43.908c-23.925 0-43.315 19.39-43.315 43.315 0 7.827 2.087 15.17 5.724 21.51.03.046.051.092.08.144L455.493 906.35c5.7 9.833 8.34 13.728 13.879 19.268 8.456 8.456 19.54 12.686 30.623 12.686z" fill="#fff"/>
    <path d="M499.994 927.451c10.513.075 22.059-5.296 27.713-15.354L984.075 121.38c2.634-5.384 3.74-10.065 3.774-15.42 0-9.584-4.242-18.68-11.578-24.847-6.467-5.008-12.595-7.614-20.837-7.614H43.7c-5.56-.051-11.135 1.286-16.195 4.623a31.803 31.803 0 0 0-15.361 27.188c.271 5.746 1.689 11.804 4.248 16.07l456.104 790.85c.04.069.091.138.131.208.047.068.093.137.139.212 1.62 2.588 3.649 4.877 5.96 6.836a32.441 32.441 0 0 0 18.923 7.844c.783.07 1.567.115 2.345.121zM955.434 73.5h2.248-2.294zM500.467 770.735L152.682 167.933h696.06z" fill="#c1121c"/>
    <path d="M499.994 938.892c11.24 0 22.473-4.288 31.043-12.859a43.842 43.842 0 0 0 7.044-9.198l22.323-38.3h.104l432.644-749.916c.098-.173.167-.323.236-.444a43.916 43.916 0 0 0 5.107-11.799c6.271-23.417-7.631-47.5-31.043-53.77a44.104 44.104 0 0 0-11.574-1.498H43.908C19.667 61.108 0 80.774 0 105.016a43.71 43.71 0 0 0 5.805 21.798c.016.036.04.081.08.15L454.98 906.652c5.712 9.833 8.403 13.815 13.97 19.382 8.571 8.571 19.81 12.86 31.044 12.86zm0-.587c-11.083 0-22.167-4.23-30.623-12.686-5.538-5.54-8.18-9.435-13.88-19.268L6.399 126.67c-.03-.052-.052-.098-.081-.143a43.098 43.098 0 0 1-5.724-21.51C.593 81.09 19.983 61.7 43.91 61.7h911.969c3.77-.018 7.603.45 11.417 1.476 23.108 6.19 36.82 29.942 30.63 53.043a43.343 43.343 0 0 1-5.054 11.673c-.082.143-.145.288-.226.432L560.168 877.947h-.105l-22.495 38.594a43.3 43.3 0 0 1-6.946 9.078c-8.454 8.456-19.538 12.686-30.628 12.686z"/>
</svg>
