<svg xmlns="http://www.w3.org/2000/svg" width="1000" height="1000">
  <path d="M61.696 499.995c0 11.09 4.23 22.174 12.686 30.628a43.3 43.3 0 0 0 9.078 6.946l38.594 22.495v.105l749.622 432.477c.144.08.289.144.432.226a43.343 43.343 0 0 0 11.673 5.053c23.1 6.192 46.852-7.52 53.043-30.63a43.125 43.125 0 0 0 1.476-11.416V43.909c0-23.925-19.39-43.315-43.315-43.315a43.096 43.096 0 0 0-21.51 5.724c-.046.03-.092.05-.144.08L93.65 455.494c-9.833 5.7-13.728 8.34-19.268 13.879-8.456 8.456-12.686 19.54-12.686 30.623z" fill="#fff"/>
  <path d="M72.55 499.995c-.075 10.513 5.296 22.059 15.354 27.713L878.62 984.076c5.384 2.634 10.065 3.74 15.42 3.774 9.584 0 18.68-4.242 24.847-11.578 5.008-6.467 7.614-12.595 7.614-20.837V43.7c.05-5.56-1.286-11.135-4.623-16.195a31.803 31.803 0 0 0-27.188-15.361c-5.746.27-11.804 1.689-16.07 4.248L87.77 472.497c-.07.04-.138.09-.208.13a4.582 4.582 0 0 1-.212.14c-2.588 1.62-4.877 3.649-6.836 5.96a32.441 32.441 0 0 0-7.844 18.923c-.07.783-.115 1.567-.121 2.345zm853.95 455.44v2.248-2.294zM229.267 500.468l602.802-347.785v696.06z" fill="#c1121c"/>
  <path d="M61.109 499.995c0 11.24 4.288 22.473 12.859 31.043a43.842 43.842 0 0 0 9.198 7.044l38.3 22.323v.104l749.916 432.644c.173.098.323.167.444.236a43.916 43.916 0 0 0 11.799 5.107c23.417 6.27 47.5-7.631 53.77-31.043a44.104 44.104 0 0 0 1.498-11.574V43.909C938.893 19.668 919.227 0 894.985 0a43.71 43.71 0 0 0-21.798 5.805c-.036.016-.081.04-.15.08L93.349 454.98c-9.833 5.712-13.815 8.403-19.382 13.97-8.571 8.57-12.86 19.81-12.86 31.044zm.587 0c0-11.083 4.23-22.167 12.686-30.623 5.54-5.538 9.435-8.18 19.268-13.88L873.33 6.4c.053-.03.099-.052.144-.081a43.098 43.098 0 0 1 21.51-5.724C918.91.594 938.3 19.984 938.3 43.91V955.88c.018 3.77-.45 7.603-1.476 11.417-6.19 23.108-29.942 36.82-53.043 30.63a43.343 43.343 0 0 1-11.673-5.054c-.143-.082-.288-.145-.432-.226L122.054 560.169v-.105L83.46 537.569a43.3 43.3 0 0 1-9.078-6.946c-8.456-8.454-12.686-19.538-12.686-30.628z"/>
</svg>
