<svg xmlns="http://www.w3.org/2000/svg" height="1000" width="1000">
  <path d="M999.167 60.731c.035-60.03-59.91-59.9-59.91-59.9H60.731S.781.701.831 60.731v878.536c-.06 60.42 59.9 59.9 59.9 59.9H939.26s60.108.495 59.91-59.9z" fill="#fff"/>
  <path d="M979.2 60.731c0-22.045-17.876-39.932-39.933-39.932H60.732C38.66 20.8 20.8 38.687 20.8 60.732v878.536c0 22.054 17.861 39.933 39.933 39.933h878.534c22.057 0 39.934-17.879 39.934-39.933z" fill="#154889"/>
  <path d="M1000 60.731c.016-30.296-15.218-45.635-30.4-53.209C954.413-.052 939.25 0 939.25 0H60.73s-15.166-.044-30.34 7.523C15.21 15.096-.028 30.435 0 60.732v878.535c-.033 30.487 15.21 45.834 30.392 53.357 15.174 7.515 30.331 7.375 30.34 7.375H939.26c.008 0 15.2.13 30.393-7.392 15.2-7.523 30.443-22.87 30.348-53.34zm-.833 0v878.536c.2 60.395-59.91 59.9-59.91 59.9H60.731s-59.96.52-59.9-59.9V60.731c-.05-60.03 59.9-59.9 59.9-59.9H939.26s59.943-.13 59.908 59.9z"/>
  <path d="M158.98 83.15v833.7l721.98-416.833" fill="#fff"/>
  <path d="M710.767 526.475c-21.388 0-38.755-17.369-38.755-38.756 0-21.397 17.367-38.737 38.755-38.737 21.398 0 38.738 17.34 38.738 38.737 0 21.387-17.34 38.756-38.738 38.756zm-115.232 19.376H483.18V468.36h92.91l-77.485-50.314c-15.702-10.21-20.166-31.199-9.983-46.893l146.83 95.32c22.428 14.566 28.806 44.576 14.24 67.005a56.674 56.674 0 0 1-3.528 4.757l-54.554 65.014a29.082 29.082 0 0 1-22.254 10.383h-47.447c-18.718 0-33.893-15.193-33.893-33.895h79.077zm-141.562-38.764l-168.477-91.46c-18.77-10.21-25.757-33.72-15.52-52.518L459.493 466.02a19.325 19.325 0 0 0 9.222 2.338h4.792v77.493h-4.792c-3.223 0-6.405.772-9.222 2.34l-141.69 76.928c-18.796 10.183-42.308 3.226-52.542-15.572zM194.406 740.935l141.717-62.57v62.95l-141.717 84.67zm0-141.717l101.646-18.47-45.202 24.518 5.07 9.35c13.024 23.963 42.983 32.855 66.92 19.83l13.283-7.204v9.145l-141.717 47.88zm0-141.717l141.717 11.04v62.941L194.406 542.55zm0-141.744l141.717 47.854v23.312l-70.43-38.225-5.068 9.324c-9.829 18.086-7.41 40.393 6.1 55.94l-72.319-13.156zm0-141.708l141.717 84.66v62.95l-141.717-62.596"/>
</svg>
