<svg xmlns="http://www.w3.org/2000/svg" height="1000" width="1000">
    <path d="M60.732.832C.702.797.832 60.742.832 60.742v878.526s-.13 59.951 59.9 59.9h878.536c60.419.06 59.9-59.9 59.9-59.9V60.74s.495-60.108-59.9-59.909z" fill="#fff"/>
    <path d="M60.732 20.8C38.687 20.8 20.8 38.675 20.8 60.732v878.535c0 22.072 17.888 39.933 39.933 39.933h878.536c22.054 0 39.933-17.861 39.933-39.933V60.733c0-22.057-17.879-39.934-39.933-39.934z" fill="#154889"/>
    <path d="M60.732 0C30.436-.017 15.097 15.217 7.523 30.4-.051 45.585 0 60.75 0 60.75v878.518s-.044 15.166 7.523 30.34c7.574 15.182 22.913 30.419 53.21 30.392h878.535c30.487.033 45.834-15.21 53.357-30.392 7.515-15.174 7.375-30.331 7.375-30.34V60.74c0-.008.13-15.2-7.392-30.393-7.523-15.2-22.871-30.443-53.34-30.348zm0 .832h878.536c60.395-.2 59.9 59.91 59.9 59.91v878.526s.519 59.96-59.9 59.9H60.732c-60.03.051-59.9-59.9-59.9-59.9V60.74S.702.797 60.732.832z"/>
    <path d="M83.15 841.02h833.7L500.018 119.039" fill="#fff"/>
    <path d="M526.476 289.232c0 21.388-17.369 38.755-38.756 38.755-21.397 0-38.737-17.367-38.737-38.755 0-21.398 17.34-38.738 38.737-38.738 21.387 0 38.756 17.34 38.756 38.738zm19.376 115.232V516.82H468.36v-92.91l-50.314 77.485c-10.21 15.702-31.199 20.166-46.893 9.983l95.32-146.83c14.566-22.428 44.576-28.806 67.005-14.24a56.674 56.674 0 0 1 4.757 3.528l65.014 54.554a29.082 29.082 0 0 1 10.383 22.254v47.447c0 18.718-15.193 33.893-33.895 33.893v-79.077zm-38.764 141.562l-91.46 168.477c-10.21 18.77-33.72 25.757-52.518 15.52l102.911-189.517a19.325 19.325 0 0 0 2.338-9.222v-4.792h77.493v4.792c0 3.223.772 6.405 2.34 9.222l76.928 141.69c10.183 18.796 3.226 42.308-15.572 52.542zm233.848 259.567l-62.571-141.717h62.95l84.67 141.717zm-141.717 0l-18.47-101.646 24.518 45.202 9.35-5.069c23.963-13.025 32.855-42.984 19.83-66.92l-7.204-13.284h9.145l47.88 141.717zm-141.717 0l11.04-141.717h62.941l11.068 141.717zm-141.744 0l47.854-141.717h23.312l-38.225 70.43 9.324 5.068c18.086 9.829 40.393 7.41 55.94-6.1l-13.156 72.319zm-141.708 0l84.659-141.717h62.95l-62.595 141.717"/>
</svg>
