<?xml version="1.0" encoding="UTF-8" standalone="no"?>
<!-- Generator: Adobe Illustrator 18.0.0, SVG Export Plug-In . SVG Version: 6.00 Build 0)  -->

<svg
   xmlns:dc="http://purl.org/dc/elements/1.1/"
   xmlns:cc="http://creativecommons.org/ns#"
   xmlns:rdf="http://www.w3.org/1999/02/22-rdf-syntax-ns#"
   xmlns:svg="http://www.w3.org/2000/svg"
   xmlns="http://www.w3.org/2000/svg"
   xmlns:sodipodi="http://sodipodi.sourceforge.net/DTD/sodipodi-0.dtd"
   xmlns:inkscape="http://www.inkscape.org/namespaces/inkscape"
   version="1.1"
   id="Ebene_1"
   x="0px"
   y="0px"
   viewBox="0 0 422.1 422.1"
   enable-background="new 0 0 422.1 422.1"
   xml:space="preserve"
   sodipodi:docname="svgs_3-10.svg"
   inkscape:version="0.92.2 5c3e80d, 2017-08-06"><metadata
     id="metadata13"><rdf:RDF><cc:Work
         rdf:about=""><dc:format>image/svg+xml</dc:format><dc:type
           rdf:resource="http://purl.org/dc/dcmitype/StillImage" /></cc:Work></rdf:RDF></metadata><defs
     id="defs11" /><sodipodi:namedview
     pagecolor="#ffffff"
     bordercolor="#666666"
     borderopacity="1"
     objecttolerance="10"
     gridtolerance="10"
     guidetolerance="10"
     inkscape:pageopacity="0"
     inkscape:pageshadow="2"
     inkscape:window-width="2560"
     inkscape:window-height="1551"
     id="namedview9"
     showgrid="false"
     inkscape:zoom="1.1182184"
     inkscape:cx="249.53442"
     inkscape:cy="93.702542"
     inkscape:window-x="0"
     inkscape:window-y="0"
     inkscape:window-maximized="1"
     inkscape:current-layer="Ebene_1" /><g
     id="g3707"
     transform="rotate(-90,211.05,211.05)"><path
       id="path2"
       d="m 422.1,422.1 h -2 c 0,-56.7 -11.1,-111.7 -33,-163.5 -21.2,-50 -51.5,-95 -90,-133.6 C 258.5,86.4 213.6,56.1 163.6,35 111.7,13.1 56.7,2 0,2 V 0 c 57,0 112.3,11.2 164.3,33.2 50.3,21.3 95.4,51.7 134.2,90.5 38.8,38.8 69.2,83.9 90.5,134.2 22,52 33.1,107.3 33.1,164.2 z"
       inkscape:connector-curvature="0" /><path
       id="path4"
       d="m 353.7,422.1 h -2 c 0,-12 -0.5,-22.6 -1.7,-34.4 l 2,-0.2 c 1.2,11.9 1.7,22.6 1.7,34.6 z m -8,-64 c -2.6,-13.7 -6,-27.3 -10.2,-40.6 l 1.9,-0.6 c 4.2,13.3 7.7,27.1 10.3,40.8 z M 325.3,289.5 C 320,276.7 313.9,264 307.1,251.9 l 1.7,-1 c 6.8,12.2 13,24.9 18.3,37.8 z M 291.4,226.4 C 283.6,214.9 275,203.7 265.9,193.2 l 1.5,-1.3 c 9.2,10.6 17.8,21.8 25.6,33.4 z m -46.1,-54.9 c -10,-9.7 -20.6,-18.9 -31.7,-27.4 l 1.2,-1.6 c 11.1,8.5 21.8,17.8 31.8,27.5 z M 189.2,127 c -11.7,-7.5 -24,-14.4 -36.6,-20.4 l 0.9,-1.8 c 12.6,6.1 25,13 36.8,20.5 z M 125.1,94.8 c -13,-5 -26.4,-9.2 -40,-12.5 l 0.5,-1.9 C 99.2,83.8 112.7,88 125.8,93 Z M 55.9,76.3 C 42.2,74.1 28.2,72.7 14.3,72.2 l 0.1,-2 c 14,0.6 28.1,2 41.9,4.2 z"
       inkscape:connector-curvature="0" /><path
       id="path6"
       d="m 283.9,422.1 h -2 C 281.9,346.8 252.6,277.5 199.4,224.3 146.2,171.1 75.3,141.7 0,141.7 v -2 c 75.8,0 147.1,29.5 200.8,83.2 53.6,53.6 83.1,123.4 83.1,199.2 z"
       inkscape:connector-curvature="0" /></g></svg>