<svg width="424" height="424" xmlns="http://www.w3.org/2000/svg"><g fill="#000" fill-rule="nonzero"><path d="M424 0v2.009c-56.955 0-112.203 11.15-164.236 33.149-50.225 21.295-95.428 51.731-134.201 90.405-38.774 38.773-69.21 83.876-90.405 134.1C13.159 311.798 2.009 367.046 2.009 424H0c0-57.257 11.25-112.805 33.35-165.04 21.395-50.526 51.932-95.829 90.907-134.804C163.23 85.182 208.534 54.645 259.06 33.25 311.295 11.15 366.844 0 424 0z"/><path d="M423.098 69.464v2.005c-12.028 0-22.654.5-34.481 1.704l-.2-2.005c11.927-1.203 22.653-1.704 34.68-1.704zm-64.151 8.019a355.33 355.33 0 0 0-40.696 10.224l-.602-1.905c13.332-4.21 27.164-7.718 40.897-10.324l.4 2.005zM290.184 97.93c-12.83 5.312-25.56 11.427-37.688 18.243l-1.003-1.704c12.229-6.816 24.959-13.03 37.89-18.343l.801 1.804zm-63.249 33.98a357.321 357.321 0 0 0-33.278 25.56l-1.303-1.503c10.625-9.222 21.851-17.842 33.479-25.66l1.102 1.603zm-55.03 46.21c-9.722 10.023-18.944 20.648-27.464 31.774l-1.604-1.203c8.52-11.126 17.842-21.851 27.565-31.875l1.503 1.303zM127.3 234.352c-7.517 11.727-14.434 24.056-20.448 36.686l-1.804-.902a368.023 368.023 0 0 1 20.548-36.887l1.704 1.103zm-32.276 64.251a326.052 326.052 0 0 0-12.53 40.095l-1.904-.501c3.408-13.633 7.618-27.164 12.63-40.295l1.804.701zM76.48 367.968c-2.205 13.732-3.608 27.765-4.11 41.698l-2.004-.1c.601-14.033 2.005-28.166 4.21-42l1.904.402zM424 139.5v2.004c-75.905 0-145.762 29.362-199.39 82.675C170.982 277.49 141.346 348.54 141.346 424h-2.016c0-75.96 29.737-147.41 83.869-201.224C277.229 169.062 347.59 139.5 424 139.5z"/></g></svg>
