<?xml version="1.0" encoding="utf-8"?>
<!-- Generator: Adobe Illustrator 18.0.0, SVG Export Plug-In . SVG Version: 6.00 Build 0)  -->
<!DOCTYPE svg PUBLIC "-//W3C//DTD SVG 1.1//EN" "http://www.w3.org/Graphics/SVG/1.1/DTD/svg11.dtd">
<svg version="1.1" id="Ebene_1" xmlns="http://www.w3.org/2000/svg" xmlns:xlink="http://www.w3.org/1999/xlink" x="0px" y="0px"
	 viewBox="0 0 411 411" enable-background="new 0 0 411 411" xml:space="preserve">
<path d="M0,0l0,2c78.4,0,142.5,19.7,195.8,60.1c46.1,35,76.8,79.7,103.9,119.1c17,24.7,33,48.1,50.2,64.7c19.2,18.5,39.6,25,61,25
	v-2c-45.6,0-74.7-38-109.6-88.9c-27.2-39.6-58-84.4-104.4-119.6C143.3,19.8,78.9,0,0,0z"/>
<path d="M56.6,72.1l-0.3,2c-13.2-2.1-27.2-3.2-41.6-3.2v-2C29.2,68.9,43.3,70,56.6,72.1z M124.7,94.7l-0.9,1.8
	c-12.2-6.5-25.2-11.8-38.5-15.8l0.6-1.9C99.3,82.7,112.4,88.1,124.7,94.7z M182.1,138l-1.4,1.4c-10.5-10.5-20.8-19.4-31.7-27.2
	l1.2-1.6C161.1,118.5,171.5,127.5,182.1,138z M228.3,193.4l-1.6,1.2c-9.5-13-17.7-23.5-25.8-33.1l1.5-1.3
	C210.5,169.8,218.7,180.3,228.3,193.4z M248,221c7.6,10.8,14.8,20.9,22.2,30.9l-1.6,1.2c-7.5-10-15-20.7-22.2-31l-2.3-3.2l1.6-1.2
	L248,221z M317.9,305.4l-1.3,1.5c-9.6-8.3-19.3-18.1-29.4-30.2l1.5-1.3C298.8,287.4,308.3,297.2,317.9,305.4z M380.5,337.8l-0.4,2
	c-13.8-3-26.6-8-39.1-15.3l1-1.7C354.3,329.9,366.9,334.8,380.5,337.8z"/>
<path d="M0,139.7l0,2c89.9,0,137.4,62.1,187.7,127.8C241.9,340.2,297.6,411,411,411v-2c-112.4,0-167.9-70.4-221.7-140.7
	C138.7,202.2,90.8,139.7,0,139.7z"/>
</svg>
