<svg width="411" height="411" xmlns="http://www.w3.org/2000/svg"><g fill="#000" fill-rule="nonzero"><path d="M14.7 342.1v-2c14.4 0 28.4-1.1 41.6-3.2l.3 2c-13.3 2.2-27.4 3.2-41.9 3.2zm71.1-9.8l-.6-1.9c13.3-4 26.3-9.3 38.5-15.8l.9 1.8c-12.2 6.5-25.3 11.9-38.8 15.9zm64.3-31.9l-1.2-1.6c10.9-7.9 21.2-16.8 31.7-27.2l1.4 1.4c-10.5 10.5-20.9 19.5-31.9 27.4zm52.3-49.6l-1.5-1.3c8.1-9.6 16.3-20.1 25.8-33.1l1.6 1.2c-9.6 13.1-17.8 23.6-25.9 33.2zm43.4-57.6l-1.6-1.2 2.3-3.2c7.3-10.3 14.8-20.9 22.2-31l1.6 1.2c-7.4 10-14.6 20.2-22.2 30.9l-2.3 3.3zm42.9-57.7l-1.5-1.3c10.1-12 19.7-21.9 29.4-30.2l1.3 1.5c-9.6 8.3-19.1 18.1-29.2 30zM342 88.3l-1-1.7c12.5-7.3 25.3-12.3 39.1-15.3l.4 2c-13.6 2.9-26.2 7.8-38.5 15zM0 276v-2.035c89.9 0 137.4-63.175 187.7-130.014C241.9 72.027 297.6 0 411 0v2.035c-112.4 0-167.8 71.62-221.7 143.137C138.7 212.417 90.8 276 0 276zM0 411v-2.02c78.4 0 142.6-19.894 196.2-60.794 46.3-35.346 77.3-80.488 104.6-120.378 17.1-24.944 33.3-48.575 50.6-65.34C370.7 143.787 389.6 135 411 135v2.02c-45.6 0-73.4 40.597-108.6 91.899-27.4 39.991-58.5 85.335-105 120.882C143.5 391.004 78.9 411 0 411z"/></g></svg>
