<?xml version="1.0" encoding="utf-8"?>
<!-- Generator: Adobe Illustrator 18.0.0, SVG Export Plug-In . SVG Version: 6.00 Build 0)  -->
<!DOCTYPE svg PUBLIC "-//W3C//DTD SVG 1.1//EN" "http://www.w3.org/Graphics/SVG/1.1/DTD/svg11.dtd">
<svg version="1.1" id="Ebene_1" xmlns="http://www.w3.org/2000/svg" xmlns:xlink="http://www.w3.org/1999/xlink" x="0px" y="0px"
	 viewBox="0 0 411 411" enable-background="new 0 0 411 411" xml:space="preserve">
<path d="M14.7,342.1v-2c14.4,0,28.4-1.1,41.6-3.2l0.3,2C43.3,341.1,29.2,342.1,14.7,342.1z M85.8,332.3l-0.6-1.9
	c13.3-4,26.3-9.3,38.5-15.8l0.9,1.8C112.4,322.9,99.3,328.3,85.8,332.3z M150.1,300.4l-1.2-1.6c10.9-7.9,21.2-16.8,31.7-27.2
	l1.4,1.4C171.5,283.5,161.1,292.5,150.1,300.4z M202.4,250.8l-1.5-1.3c8.1-9.6,16.3-20.1,25.8-33.1l1.6,1.2
	C218.7,230.7,210.5,241.2,202.4,250.8z M245.8,193.2l-1.6-1.2l2.3-3.2c7.3-10.3,14.8-20.9,22.2-31l1.6,1.2
	c-7.4,10-14.6,20.2-22.2,30.9L245.8,193.2z M288.7,135.5l-1.5-1.3c10.1-12,19.7-21.9,29.4-30.2l1.3,1.5
	C308.3,113.8,298.8,123.6,288.7,135.5z M342,88.3l-1-1.7c12.5-7.3,25.3-12.3,39.1-15.3l0.4,2C366.9,76.2,354.3,81.1,342,88.3z"/>
<path d="M0,271.3v-2c89.9,0,137.4-62.1,187.7-127.8C241.9,70.8,297.6,0,411,0v2C298.6,2,243.2,72.4,189.3,142.7
	C138.7,208.8,90.8,271.3,0,271.3z"/>
<path d="M0,411v-2c78.4,0,142.6-19.7,196.2-60.2c46.3-35,77.3-79.7,104.6-119.2c17.1-24.7,33.3-48.1,50.6-64.7
	c19.3-18.5,38.2-27.2,59.6-27.2v2c-45.6,0-73.4,40.2-108.6,91c-27.4,39.6-58.5,84.5-105,119.7C143.5,391.2,78.9,411,0,411z"/>
</svg>
