<svg width="280" height="280" xmlns="http://www.w3.org/2000/svg"><g fill="#000" fill-rule="nonzero"><path d="M2.006 280H0c0-74.814 29.083-145.115 82.034-197.966C134.986 29.184 205.186 0 280 0v2.006c-74.212 0-144.112 28.882-196.562 81.432C30.888 135.988 2.006 205.788 2.006 280zM140.026 280H138c0-78.292 63.708-142 142-142v2.026c-77.178 0-139.974 62.796-139.974 139.974z"/><path d="M71.9 279.2h-2c0-8.4.5-16.9 1.5-25.2l2 .2c-1 8.3-1.5 16.7-1.5 25zm7.2-54.2l-1.9-.5c3.7-13.5 8.7-26.8 15.1-39.3l1.7.8c-6.3 12.4-11.3 25.5-14.9 39zm30.2-64.6l-1.6-1.1a214.3 214.3 0 0 1 27.5-31.9l1.4 1.5c-10.2 9.5-19.3 20.1-27.3 31.5zm50.3-50.5l-1.2-1.6c11.5-8.1 23.8-15.1 36.7-20.8l.8 1.8c-12.8 5.6-25 12.5-36.3 20.6zM224 79.3l-.5-1.9c13.5-3.7 27.5-6.1 41.5-7l.1 2c-13.9.9-27.7 3.2-41.1 6.9z"/></g></svg>
